<svg xmlns="http://www.w3.org/2000/svg" xmlns:xlink="http://www.w3.org/1999/xlink" viewBox="0 0 582.66 723.06"><defs><style>.cls-1{fill:url(#linear-gradient);}.cls-2{fill:none;clip-rule:evenodd;}.cls-3{isolation:isolate;}.cls-4{clip-path:url(#clip-path);}.cls-5{fill:url(#linear-gradient-2);}.cls-6{mask:url(#mask);}.cls-7{fill:#ff00d5;}.cls-7,.cls-8{fill-rule:evenodd;}.cls-8{fill:#4a1877;}.cls-9{opacity:0.8;fill:url(#radial-gradient);}.cls-11,.cls-13,.cls-15,.cls-9{mix-blend-mode:multiply;}.cls-10{fill:url(#linear-gradient-3);}.cls-11{fill:url(#linear-gradient-4);}.cls-12{fill:url(#linear-gradient-5);}.cls-13{fill:url(#linear-gradient-6);}.cls-14{fill:url(#linear-gradient-7);}.cls-15{fill:url(#linear-gradient-8);}.cls-16{fill:#fff;opacity:0.2;}.cls-17{fill:url(#linear-gradient-9);}</style><linearGradient id="linear-gradient" x1="804.24" y1="392.21" x2="1127.45" y2="590.18" gradientTransform="matrix(1, -0.05, -0.05, -1, -604.95, 704.42)" gradientUnits="userSpaceOnUse"><stop offset="0" stop-color="#fff"/><stop offset="1"/></linearGradient><clipPath id="clip-path"><path id="SVGID" class="cls-2" d="M520.5,427.35c-3.76-41.64-27.57-77.47-62.47-100.27a153.54,153.54,0,0,0-14.11-8.2l-5.06-99.65c-2.16-42.42-42.22-74.56-89.49-71.8s-83.84,39.4-81.68,81.82l-70.95,4.15C192.8,155.82,259.68,88.82,346.13,83.76c84.59-5,156.56,51.22,163.33,126.31l.5,10Z"/></clipPath><linearGradient id="linear-gradient-2" x1="1531.63" y1="-378.55" x2="1285.12" y2="-44.43" gradientTransform="matrix(1, -0.05, -0.05, -1, -1067.68, 120.11)" gradientUnits="userSpaceOnUse"><stop offset="0" stop-color="#6a00b8"/><stop offset="1" stop-color="#db17b9"/></linearGradient><mask id="mask" x="187.49" y="115.24" width="247.96" height="160.06" maskUnits="userSpaceOnUse"><polygon class="cls-1" points="191.44 129.21 430.16 115.24 435.45 219.43 196.74 233.4 191.44 129.21"/></mask><radialGradient id="radial-gradient" cx="261.21" cy="3945.52" r="285.79" gradientTransform="translate(96.02 287.67) scale(0.89 0.09)" gradientUnits="userSpaceOnUse"><stop offset="0" stop-color="#606060"/><stop offset="0.3" stop-color="#606060" stop-opacity="0.59"/><stop offset="0.59" stop-color="#606060" stop-opacity="0.27"/><stop offset="0.83" stop-color="#606060" stop-opacity="0.07"/><stop offset="1" stop-color="#606060" stop-opacity="0"/></radialGradient><linearGradient id="linear-gradient-3" x1="402.63" y1="807.03" x2="402.63" y2="422.21" gradientTransform="translate(138.26 -294.92) rotate(20.79)" gradientUnits="userSpaceOnUse"><stop offset="0" stop-color="#ff742c"/><stop offset="1" stop-color="#ffc904"/></linearGradient><linearGradient id="linear-gradient-4" x1="381.03" y1="533.55" x2="381.03" y2="451.16" xlink:href="#linear-gradient-3"/><linearGradient id="linear-gradient-5" x1="1425.85" y1="425.29" x2="1425.85" y2="40.47" gradientTransform="matrix(-0.77, 0.63, -0.63, -0.77, 1647.73, -314.61)" xlink:href="#linear-gradient-3"/><linearGradient id="linear-gradient-6" x1="606.77" y1="707.8" x2="606.77" y2="503.7" gradientTransform="translate(138.26 -294.92) rotate(20.79)" gradientUnits="userSpaceOnUse"><stop offset="0" stop-color="#ffc904"/><stop offset="1" stop-color="#ff742c"/></linearGradient><linearGradient id="linear-gradient-7" x1="516.81" y1="806.12" x2="516.81" y2="503.69" xlink:href="#linear-gradient-6"/><linearGradient id="linear-gradient-8" x1="429.07" y1="806.12" x2="429.07" y2="712.62" xlink:href="#linear-gradient-6"/><linearGradient id="linear-gradient-9" x1="292.61" y1="443" x2="408.97" y2="443" gradientTransform="translate(211.61 -104.66) rotate(24.12)" xlink:href="#linear-gradient-2"/></defs><g class="cls-3"><g id="Layer_1" data-name="Layer 1"><g class="cls-4"><polygon class="cls-5" points="189.6 92.92 502.57 74.61 520.5 427.35 207.52 445.67 189.6 92.92"/></g><g class="cls-6"><path class="cls-7" d="M434.36,197.92c-12-31.35-46-52.77-85-50.49-47.27,2.77-82.26,45.73-80.11,88.15L187.49,275.3c-.24-58.4,60.07-149.37,125-153.17,56.71-3.32,106.38,28.9,121.86,75.79"/></g><path class="cls-8" d="M520.5,427.35c-3.76-41.64-27.57-77.47-62.47-100.27a153.54,153.54,0,0,0-14.11-8.2l-.79-15.7c2.83,1.26,5.63,2.61,8.39,4a172.3,172.3,0,0,1,15.45,9,155.74,155.74,0,0,1,50.58,53.17Z"/><ellipse class="cls-9" cx="328.39" cy="652.24" rx="254.27" ry="26.4"/><path class="cls-10" d="M241,476c7.95-106,100.29-185.43,206.26-177.49a193.43,193.43,0,0,1,37.63,6.59,192.46,192.46,0,0,0-213-37.44C175,311.27,131.71,425.17,175.29,522.09A192,192,0,0,0,298.83,628.44,192,192,0,0,1,241,476Z"/><path class="cls-11" d="M377.21,279.16a192,192,0,0,0-160.8,26.23.1.1,0,0,0,0,0,192.5,192.5,0,0,1,112.66,23,191.47,191.47,0,0,1,93.17-30.15A192.51,192.51,0,0,0,377.21,279.16Z"/><path class="cls-12" d="M377.24,331.56c87.8,59.86,110.45,179.57,50.58,267.37a193.4,193.4,0,0,1-24.52,29.29A192.49,192.49,0,0,0,542.24,462.46c10.71-105.73-66.31-200.12-172-210.84a192,192,0,0,0-153.87,53.81A192,192,0,0,1,377.24,331.56Z"/><path class="cls-13" d="M479.58,547.77a192,192,0,0,0,57.68-152.42v0A192.55,192.55,0,0,1,461,481.38,191.34,191.34,0,0,1,440.75,577,192.66,192.66,0,0,0,479.58,547.77Z"/><path class="cls-14" d="M537.26,395.31A192.38,192.38,0,0,1,241.12,506.37a192.11,192.11,0,0,0,57.45,121.81A192.45,192.45,0,0,0,537.26,395.31Z"/><path class="cls-15" d="M262.4,519.14a193.91,193.91,0,0,1-21.28-12.77,192.11,192.11,0,0,0,57.45,121.81l.09,0A192.57,192.57,0,0,1,262.4,519.14Z"/><path class="cls-16" d="M304.54,535,239.41,600.1a193.41,193.41,0,0,0,39.07,21.37l81-81A192.31,192.31,0,0,1,304.54,535Z"/><path class="cls-16" d="M247.47,541.88q2,7.3,4.6,14.37l28.79-28.79a193.51,193.51,0,0,1-18.47-8.33q-5.5-2.83-10.82-6l-.17-.11c-1.71-1-3.42-2.09-5.1-3.17s-3.47-2.28-5.18-3.46a193,193,0,0,1,5.94-66l-74.73,74.73c.94,2.33,1.92,4.65,3,7a191.74,191.74,0,0,0,46.78,64.17l30-30Q249.49,549.18,247.47,541.88Zm-6.35-35.51a191.44,191.44,0,0,0,3.95,26A189.89,189.89,0,0,1,241.12,506.37Z"/><path class="cls-16" d="M377.24,331.56a191.79,191.79,0,0,1,49.93,49.59l66.71-66.71a192,192,0,0,0-71-49.83L364.1,323.36Q370.78,327.15,377.24,331.56Z"/><path class="cls-16" d="M507.74,331.77,439,400.57a192.93,192.93,0,0,1,16.66,43.76l73.53-73.52A192.35,192.35,0,0,0,507.74,331.77Z"/><circle class="cls-17" cx="350.79" cy="443" r="58.18" transform="translate(-150.38 181.99) rotate(-24.12)"/></g></g></svg>