<?xml version="1.0" encoding="utf-8"?>
<!-- Uploaded to: SVG Repo, www.svgrepo.com, Generator: SVG Repo Mixer Tools -->
<svg width="800px" height="800px" viewBox="0 0 1024 1024" class="icon"  version="1.1" xmlns="http://www.w3.org/2000/svg"><path d="M868 169l-65-17 65-18 18-65 18 65 65 18-65 17-18 65-18-65zM97 809l-41-10 41-10 9-41 10 41 41 10-41 10-10 41-9-41z" fill="#FDCD60" /><path d="M932 240l-25-6 25-6 6-25 6 25 25 6-25 6-6 25-6-25zM81 482l-23-5 23-6 6-23 5 23 24 6-24 5-5 24-6-24z" fill="#FDCD60" /><path d="M127 223m-9 0a9 9 0 1 0 18 0 9 9 0 1 0-18 0Z" fill="#5546CB" /><path d="M926 824a25 25 0 1 1 25-25 25 25 0 0 1-25 25z m0-36a10 10 0 1 0 10 10 10 10 0 0 0-10-9z" fill="#5546CB" /><path d="M853 275H174a32 32 0 0 0-32 32v24h742v-24a32 32 0 0 0-31-32z" fill="#FFFFFF" /><path d="M853 255H174a52 52 0 0 0-52 52v418a52 52 0 0 0 52 52h679a52 52 0 0 0 52-52V307a52 52 0 0 0-52-52z m32 470v3a30 30 0 0 1-30 30H173a30 30 0 0 1-30-30V422h741zM143 402v-51h741v50z m-1-70v-25a32 32 0 0 1 32-32h679a32 32 0 0 1 32 32v24z" fill="#5546CB" /><path d="M142 422v305a30 30 0 0 0 30 30h683a30 30 0 0 0 30-30V422H142z m249 281H175v-20h216z m105-69H175v-20h321z m0-59H175v-19h321z m354 128H608V555h242zM563 465l14-14 16 16 16-16 14 14-16 16 17 17-14 14-17-17-17 17-14-14 17-17z m-79 0l14-14 16 16 16-16 14 14-16 16 17 17-14 14-17-17-17 17-14-14 17-17z m-79 0l14-14 16 16 16-16 14 14-16 16 17 17-14 14-17-17-17 17-14-14 17-17z m-79 0l14-14 16 16 16-16 14 14-16 16 17 17-14 14-17-17-17 17-14-14 17-17z m-79 0l14-14 16 16 16-16 14 14-16 16 17 17-14 14-17-17-17 17-14-14 17-17z m-79 0l14-14 16 16 16-16 14 14-16 16 17 17-14 14-17-17-17 17-14-14 17-17z" fill="#FDCD60" /><path d="M182 512l18-17 17 17 14-14-17-17 15-16-14-14-15 16-16-16-14 14 16 16-18 17 14 14zM261 512l17-17 17 17 15-14-18-17 16-16-14-14-16 16-15-16-15 14 16 16-17 17 14 14zM340 512l17-17 17 17 14-14-17-17 16-16-15-14-15 16-16-16-14 14 16 16-18 17 15 14zM418 512l17-17 17 17 15-14-18-17 16-16-14-14-16 16-15-16-15 14 16 16-17 17 14 14zM497 512l17-17 17 17 14-14-17-17 16-16-14-14-16 16-16-16-14 14 16 16-17 17 14 14zM575 512l17-17 18 17 14-14-17-17 15-16-14-14-16 16-15-16-14 14 15 16-17 17 14 14z" fill="#F97744" /><path d="M175 556h320v20H175zM175 614h320v20H175zM175 683h215v20H175z" fill="#5546CB" /><path d="M628 575h201v107.83H628z" fill="#FFFFFF" /><path d="M608 703h242V555H608z m20-128h202v108H628z" fill="#5546CB" /><path d="M143 351h741v50.41H143z" fill="#AFBCF3" /></svg>