<?xml version="1.0" encoding="utf-8"?>
<!-- Uploaded to: SVG Repo, www.svgrepo.com, Generator: SVG Repo Mixer Tools -->
<svg width="800px" height="800px" viewBox="0 0 1024 1024" class="icon"  version="1.1" xmlns="http://www.w3.org/2000/svg"><path d="M732.1 399.3C534.6 356 696.5 82.1 425.9 104.8s-527.2 645.8-46.8 791.7 728-415 353-497.2z" fill="#464BD8" /><path d="M588.7 309.5c12.7 0 23 10.3 23 23v55.4c0 12.7-10.3 23-23 23h-83.4c-12.7 0-23-10.3-23-23v-55.4c0-12.7 10.3-23 23-23h83.4m0-18.5h-83.4c-22.9 0-41.6 18.6-41.6 41.6V388c0 22.9 18.6 41.6 41.6 41.6h83.4c22.9 0 41.6-18.6 41.6-41.6v-55.4c-0.1-23-18.7-41.6-41.6-41.6z" fill="#151B28" /><path d="M328.3 684.5c-17.7 0-32.1-14.4-32.1-32.1V378c0-17.7 14.4-32.1 32.1-32.1h437.4c17.7 0 32.1 14.4 32.1 32.1v274.4c0 17.7-14.4 32.1-32.1 32.1H328.3z" fill="#FFFFFF" /><path d="M765.7 355.1c12.6 0 22.9 10.2 22.9 22.9v274.4c0 12.7-10.3 22.9-22.9 22.9H328.3c-12.6 0-22.9-10.2-22.9-22.9V378c0-12.7 10.3-22.9 22.9-22.9h437.4m0-18.5H328.3c-22.8 0-41.4 18.6-41.4 41.4v274.4c0 22.8 18.6 41.4 41.4 41.4h437.4c22.8 0 41.4-18.6 41.4-41.4V378c0-22.8-18.6-41.4-41.4-41.4z" fill="#151B28" /><path d="M791.3 400.1v256.5c0 11.9-9.6 21.4-21.4 21.4h-409c-11.8 0-21.4-9.5-21.4-21.4V400.1c0-11.9 9.6-21.4 21.4-21.4h408.9c11.9 0 21.5 9.5 21.5 21.4z" fill="#2AEFC8" /><path d="M305.4 611.4c35.3 0 63.8 28.6 63.8 63.8h-41c-12.6 0-22.9-10.2-22.9-22.9v-40.9m0.1-9.4c-5.2 0-9.4 4.2-9.4 9.4v41c0 17.8 14.5 32.3 32.3 32.3h41c5.2 0 9.4-4.2 9.4-9.4-0.1-40.5-32.9-73.3-73.3-73.3z m483.1 9.4v41c0 12.7-10.3 22.9-22.9 22.9h-41c0.1-35.4 28.7-63.9 63.9-63.9m0-9.4c-40.4 0-73.3 32.9-73.3 73.3 0 5.2 4.2 9.4 9.4 9.4h41c17.8 0 32.3-14.5 32.3-32.3v-41c0.1-5.2-4.2-9.4-9.4-9.4zM369.2 355.7c0 35.3-28.6 63.8-63.8 63.8v-41c0-12.7 10.3-22.9 22.9-22.9h40.9m0-9.3h-41c-17.8 0-32.3 14.5-32.3 32.3v41c0 5.2 4.2 9.4 9.4 9.4 40.3 0 73.1-32.7 73.3-73v-0.2c0-5.3-4.2-9.5-9.4-9.5z m0 18.8z m396.5-9.4c12.6 0 22.9 10.2 22.9 22.9v41c-35.3 0-63.8-28.6-63.8-63.8h40.9m0-9.5h-41c-5.2 0-9.4 4.2-9.4 9.4 0 40.4 32.9 73.3 73.3 73.3 5.2 0 9.4-4.2 9.4-9.4v-41c0-17.8-14.5-32.3-32.3-32.3z" fill="#151B28" /><path d="M449.3 630.6c-6.5 0-11.8-5.3-11.8-11.8V420.5c0-6.5 5.3-11.8 11.8-11.8s11.8 5.3 11.8 11.8v198.3c0 6.5-5.3 11.8-11.8 11.8z" fill="#514DDF" /><path d="M449.3 413.4c3.9 0 7.1 3.2 7.1 7.1v198.3c0 3.9-3.2 7.1-7.1 7.1s-7.1-3.2-7.1-7.1V420.5c0-3.9 3.1-7.1 7.1-7.1m0-9.4c-9.1 0-16.5 7.4-16.5 16.5v198.3c0 9.1 7.4 16.5 16.5 16.5s16.5-7.4 16.5-16.5V420.5c0-9.1-7.4-16.5-16.5-16.5z" fill="#151B28" /><path d="M547 630.6c-6.5 0-11.8-5.3-11.8-11.8V420.5c0-6.5 5.3-11.8 11.8-11.8s11.8 5.3 11.8 11.8v198.3c0 6.5-5.3 11.8-11.8 11.8z" fill="#514DDF" /><path d="M547 413.4c3.9 0 7.1 3.2 7.1 7.1v198.3c0 3.9-3.2 7.1-7.1 7.1-3.9 0-7.1-3.2-7.1-7.1V420.5c0-3.9 3.1-7.1 7.1-7.1m0-9.4c-9.1 0-16.5 7.4-16.5 16.5v198.3c0 9.1 7.4 16.5 16.5 16.5s16.5-7.4 16.5-16.5V420.5c0-9.1-7.4-16.5-16.5-16.5z" fill="#151B28" /><path d="M644.7 630.6c-6.5 0-11.8-5.3-11.8-11.8V420.5c0-6.5 5.3-11.8 11.8-11.8s11.8 5.3 11.8 11.8v198.3c0 6.5-5.3 11.8-11.8 11.8z" fill="#514DDF" /><path d="M644.7 413.4c3.9 0 7.1 3.2 7.1 7.1v198.3c0 3.9-3.2 7.1-7.1 7.1s-7.1-3.2-7.1-7.1V420.5c-0.1-3.9 3.1-7.1 7.1-7.1m0-9.4c-9.1 0-16.5 7.4-16.5 16.5v198.3c0 9.1 7.4 16.5 16.5 16.5s16.5-7.4 16.5-16.5V420.5c0-9.1-7.4-16.5-16.5-16.5z" fill="#151B28" /></svg>