<?xml version="1.0" encoding="utf-8"?>
<!-- Uploaded to: SVG Repo, www.svgrepo.com, Generator: SVG Repo Mixer Tools -->
<svg width="800px" height="800px" viewBox="0 0 1024 1024" class="icon" style="vertical-align: middle;fill: #000000;overflow: hidden;" version="1.1" xmlns="http://www.w3.org/2000/svg"><path d="M354.1504 895.232m-62.8224 0a62.8224 62.8224 0 1 0 125.6448 0 62.8224 62.8224 0 1 0-125.6448 0Z" fill="#FFAC48" /><path d="M690.3296 895.232m-62.8224 0a62.8224 62.8224 0 1 0 125.6448 0 62.8224 62.8224 0 1 0-125.6448 0Z" fill="#FFAC48" /><path d="M376.6272 836.608l-14.6944 21.8112s0.9728 69.4272-58.4704 73.8304c11.4176 15.616 29.8496 25.8048 50.688 25.8048 34.7136 0 62.8224-28.1088 62.8224-62.8224 0-26.7776-16.7424-49.5616-40.3456-58.624zM712.4992 836.608l-14.6944 21.8112s0.9728 69.4272-58.4704 73.8304c11.4176 15.616 29.8496 25.8048 50.688 25.8048 34.7136 0 62.8224-28.1088 62.8224-62.8224 0-26.7776-16.7936-49.5616-40.3456-58.624z" fill="#F98C1E" /><path d="M823.0912 870.5536H260.4032c-54.6816 0-98.9696-44.3392-98.9696-98.9696V388.608c0-54.6816 44.3392-98.9696 98.9696-98.9696h562.688c54.6816 0 98.9696 44.3392 98.9696 98.9696v382.976c0 54.6304-44.3392 98.9696-98.9696 98.9696z" fill="#ECD300" /><path d="M823.552 289.6896c13.824 13.1584 26.6752 41.5744 26.6752 101.7856v389.0176c0 26.8288 3.2768 64.768-35.0208 90.0608h7.0656c55.1424 0 99.84-45.0048 99.84-100.5568V390.144c-0.0512-55.0912-44.032-99.7376-98.56-100.4544z" fill="#E8A200" /><path d="M429.9264 705.4848H406.016c-11.4688 0-20.736-9.2672-20.736-20.736V459.8272c0-11.4688 9.2672-20.736 20.736-20.736h23.8592c11.4688 0 20.736 9.2672 20.736 20.736v224.9216c0 11.4688-9.2672 20.736-20.6848 20.736z" fill="#FF6339" /><path d="M413.3888 439.0912h37.2736v266.3936h-37.2736z" fill="#F94A21" /><path d="M648.4992 705.4848H624.64c-11.4688 0-20.736-9.2672-20.736-20.736V459.8272c0-11.4688 9.2672-20.736 20.736-20.736h23.8592c11.4688 0 20.736 9.2672 20.736 20.736v224.9216c0 11.4688-9.2672 20.736-20.736 20.736z" fill="#FF6339" /><path d="M635.0336 439.0912h37.2736v266.3936h-37.2736z" fill="#F94A21" /><path d="M420.7616 247.1936V180.224c0-21.1456 17.2032-38.4 38.4-38.4h107.1104c21.1456 0 38.4 17.2032 38.4 38.4v66.9696h62.5664V180.224c0-55.6544-45.2608-100.9664-100.9664-100.9664H459.1104c-55.6544 0-100.9664 45.2608-100.9664 100.9664v66.9696h62.6176z" fill="#FFAC48" /><path d="M562.3808 89.1904s76.5952 26.2656 76.5952 89.6v73.216h29.1328V193.792c0-31.0784-7.8848-105.1648-105.728-104.6016z" fill="#F98C1E" /><path d="M99.8912 520.5504c8.4992 0 15.36-6.8608 15.36-15.36v-19.6096c0-8.4992-6.8608-15.36-15.36-15.36s-15.36 6.8608-15.36 15.36v19.6096c0 8.4992 6.8608 15.36 15.36 15.36z" fill="#333333" /><path d="M805.9904 231.8336h-114.8928V180.224c0-64.1536-52.1728-116.3264-116.3264-116.3264H447.1808c-64.1536 0-116.3264 52.1728-116.3264 116.3264v51.6096H215.9616c-72.4992 0-131.4304 58.9824-131.4304 131.4304v32.6144c0 8.4992 6.8608 15.36 15.36 15.36s15.36-6.8608 15.36-15.36v-32.6144c0-55.552 45.2096-100.7104 100.7104-100.7104H805.9392c55.552 0 100.7104 45.2096 100.7104 100.7104v391.168c0 55.552-45.2096 100.7104-100.7104 100.7104H215.9616c-55.552 0-100.7104-45.2096-100.7104-100.7104v-197.9904c0-8.4992-6.8608-15.36-15.36-15.36s-15.36 6.8608-15.36 15.36v197.9904c0 72.4992 58.9824 131.4304 131.4304 131.4304H250.88c5.5296 38.2464 38.4512 67.7376 78.1824 67.7376s72.6528-29.4912 78.1824-67.7376h184.5248c5.5296 38.2464 38.4512 67.7376 78.1824 67.7376s72.6016-29.4912 78.1824-67.7376h57.9072c72.4992 0 131.4304-58.9824 131.4304-131.4304v-391.168c-0.0512-72.448-59.0336-131.4304-131.4816-131.4304z m-218.4704 0H434.3808V180.224c0-12.6976 10.3424-23.04 23.04-23.04h107.1104c12.6976 0 23.04 10.3424 23.04 23.04v51.6096z m30.72 0V180.224c0-29.6448-24.1152-53.76-53.76-53.76H457.4208c-29.6448 0-53.76 24.1152-53.76 53.76v51.6096h-42.0864V180.224c0-47.2064 38.4-85.6064 85.6064-85.6064h127.5904c47.2064 0 85.6064 38.4 85.6064 85.6064v51.6096h-42.1376zM329.0112 922.9312c-22.7328 0-41.8304-15.8208-46.9504-37.0176h93.9008c-5.12 21.1968-24.1664 37.0176-46.9504 37.0176z m340.8896 0c-22.7328 0-41.8304-15.8208-46.9504-37.0176h93.9008c-5.1712 21.1968-24.2176 37.0176-46.9504 37.0176z" fill="#333333" /><path d="M356.6592 641.7408c-8.4992 0-15.36 6.8608-15.36 15.36v26.88c0 19.9168 16.1792 36.096 36.096 36.096h48.3328c19.9168 0 36.096-16.1792 36.096-36.096V459.1104c0-19.9168-16.1792-36.096-36.096-36.096h-48.3328c-19.9168 0-36.096 16.1792-36.096 36.096v133.5808c0 8.4992 6.8608 15.36 15.36 15.36s15.36-6.8608 15.36-15.36V459.1104c0-2.9696 2.4064-5.376 5.376-5.376h48.3328c2.9696 0 5.376 2.4064 5.376 5.376v224.9216c0 2.9696-2.4064 5.376-5.376 5.376h-48.3328c-2.9696 0-5.376-2.4064-5.376-5.376v-26.88c0-8.4992-6.8608-15.4112-15.36-15.4112zM576.9728 642.8672c-8.4992 0-15.36 6.8608-15.36 15.36v25.7536c0 19.9168 16.1792 36.096 36.096 36.096h48.3328c19.9168 0 36.096-16.1792 36.096-36.096V459.1104c0-19.9168-16.1792-36.096-36.096-36.096h-48.3328c-19.9168 0-36.096 16.1792-36.096 36.096v138.0864c0 8.4992 6.8608 15.36 15.36 15.36s15.36-6.8608 15.36-15.36V459.1104c0-2.9696 2.4064-5.376 5.376-5.376h48.3328c2.9696 0 5.376 2.4064 5.376 5.376v224.9216c0 2.9696-2.4064 5.376-5.376 5.376h-48.3328c-2.9696 0-5.376-2.4064-5.376-5.376v-25.7536c0-8.4992-6.8608-15.4112-15.36-15.4112z" fill="#333333" /><path d="M215.04 599.3472a12.8 12.8 0 0 1-12.8-12.8v-16.8448a12.8 12.8 0 0 1 25.6 0v16.8448a12.8 12.8 0 0 1-12.8 12.8z" fill="#FFFFFF" /><path d="M215.04 530.176a12.8 12.8 0 0 1-12.8-12.8V387.4304c0-31.3856 25.5488-56.9344 56.9344-56.9344h31.2832a12.8 12.8 0 0 1 0 25.6h-31.2832c-17.3056 0-31.3344 14.08-31.3344 31.3344v129.9968c0 7.0144-5.7344 12.7488-12.8 12.7488z" fill="#FFFFFF" /></svg>