<?xml version="1.0" encoding="iso-8859-1"?>
<!-- Uploaded to: SVG Repo, www.svgrepo.com, Generator: SVG Repo Mixer Tools -->
<svg version="1.1" id="Layer_1" xmlns="http://www.w3.org/2000/svg" xmlns:xlink="http://www.w3.org/1999/xlink" 
	 viewBox="0 0 512 512" xml:space="preserve">
<circle style="fill:#FFC200;" cx="256" cy="256" r="256"/>
<path style="fill:#F2B800;" d="M428,304c-9.832,0-17.984,7.148-19.648,16.508C406.948,320.196,405.5,320,404,320
	s-2.948,0.196-4.352,0.508C397.984,311.148,389.832,304,380,304s-17.984,7.148-19.648,16.508C358.948,320.196,357.5,320,356,320
	s-2.948,0.196-4.352,0.508C349.984,311.148,341.832,304,332,304s-17.984,7.148-19.648,16.508C310.948,320.196,309.5,320,308,320
	s-2.948,0.196-4.352,0.508C301.984,311.148,293.832,304,284,304s-17.984,7.148-19.648,16.508C262.948,320.196,261.5,320,260,320
	s-2.948,0.196-4.352,0.508C253.984,311.148,245.832,304,236,304s-17.984,7.148-19.648,16.508C214.948,320.196,213.5,320,212,320
	s-2.948,0.196-4.352,0.508C205.984,311.148,197.832,304,188,304s-17.984,7.148-19.648,16.508C166.948,320.196,165.5,320,164,320
	s-2.948,0.196-4.352,0.508C157.984,311.148,149.832,304,140,304s-17.984,7.148-19.648,16.508C118.948,320.196,117.5,320,116,320
	s-2.948,0.196-4.352,0.508C109.984,311.148,101.832,304,92,304c-11.028,0-20,8.972-20,20v24c0,11.028,8.972,20,20,20
	c1.5,0,2.948-0.196,4.352-0.508C98.016,376.852,106.168,384,116,384s17.984-7.148,19.648-16.508C137.052,367.804,138.5,368,140,368
	s2.948-0.196,4.352-0.508C146.016,376.852,154.168,384,164,384s17.984-7.148,19.648-16.508C185.052,367.804,186.5,368,188,368
	s2.948-0.196,4.352-0.508C194.016,376.852,202.168,384,212,384s17.984-7.148,19.648-16.508C233.052,367.804,234.5,368,236,368
	s2.948-0.196,4.352-0.508C242.016,376.852,250.168,384,260,384s17.984-7.148,19.648-16.508C281.052,367.804,282.5,368,284,368
	s2.948-0.196,4.352-0.508C290.016,376.852,298.168,384,308,384s17.984-7.148,19.648-16.508C329.052,367.804,330.5,368,332,368
	s2.948-0.196,4.352-0.508C338.016,376.852,346.168,384,356,384s17.984-7.148,19.648-16.508C377.052,367.804,378.5,368,380,368
	s2.948-0.196,4.352-0.508C386.016,376.852,394.168,384,404,384s17.984-7.148,19.648-16.508C425.052,367.804,426.5,368,428,368
	c11.028,0,20-8.972,20-20v-24C448,312.972,439.028,304,428,304z"/>
<g>
	<path style="fill:#F5F5F5;" d="M92,360c-6.628,0-12-5.376-12-12v-24c0-6.624,5.372-12,12-12s12,5.376,12,12v24
		C104,354.624,98.628,360,92,360z"/>
	<path style="fill:#F5F5F5;" d="M116,376c-6.628,0-12-5.376-12-12v-24c0-6.624,5.372-12,12-12s12,5.376,12,12v24
		C128,370.624,122.628,376,116,376z"/>
	<path style="fill:#F5F5F5;" d="M140,360c-6.628,0-12-5.376-12-12v-24c0-6.624,5.372-12,12-12s12,5.376,12,12v24
		C152,354.624,146.628,360,140,360z"/>
	<path style="fill:#F5F5F5;" d="M164,376c-6.628,0-12-5.376-12-12v-24c0-6.624,5.372-12,12-12s12,5.376,12,12v24
		C176,370.624,170.628,376,164,376z"/>
	<path style="fill:#F5F5F5;" d="M188,360c-6.628,0-12-5.376-12-12v-24c0-6.624,5.372-12,12-12s12,5.376,12,12v24
		C200,354.624,194.628,360,188,360z"/>
	<path style="fill:#F5F5F5;" d="M212,376c-6.628,0-12-5.376-12-12v-24c0-6.624,5.372-12,12-12s12,5.376,12,12v24
		C224,370.624,218.628,376,212,376z"/>
	<path style="fill:#F5F5F5;" d="M236,360c-6.628,0-12-5.376-12-12v-24c0-6.624,5.372-12,12-12s12,5.376,12,12v24
		C248,354.624,242.628,360,236,360z"/>
	<path style="fill:#F5F5F5;" d="M260,376c-6.628,0-12-5.376-12-12v-24c0-6.624,5.372-12,12-12c6.628,0,12,5.376,12,12v24
		C272,370.624,266.628,376,260,376z"/>
	<path style="fill:#F5F5F5;" d="M284,360c-6.628,0-12-5.376-12-12v-24c0-6.624,5.372-12,12-12s12,5.376,12,12v24
		C296,354.624,290.628,360,284,360z"/>
	<path style="fill:#F5F5F5;" d="M308,376c-6.628,0-12-5.376-12-12v-24c0-6.624,5.372-12,12-12s12,5.376,12,12v24
		C320,370.624,314.628,376,308,376z"/>
	<path style="fill:#F5F5F5;" d="M332,360c-6.628,0-12-5.376-12-12v-24c0-6.624,5.372-12,12-12s12,5.376,12,12v24
		C344,354.624,338.628,360,332,360z"/>
	<path style="fill:#F5F5F5;" d="M356,376c-6.628,0-12-5.376-12-12v-24c0-6.624,5.372-12,12-12s12,5.376,12,12v24
		C368,370.624,362.628,376,356,376z"/>
	<path style="fill:#F5F5F5;" d="M380,360c-6.628,0-12-5.376-12-12v-24c0-6.624,5.372-12,12-12s12,5.376,12,12v24
		C392,354.624,386.628,360,380,360z"/>
	<path style="fill:#F5F5F5;" d="M404,376c-6.628,0-12-5.376-12-12v-24c0-6.624,5.372-12,12-12s12,5.376,12,12v24
		C416,370.624,410.628,376,404,376z"/>
	<path style="fill:#F5F5F5;" d="M428,360c-6.628,0-12-5.376-12-12v-24c0-6.624,5.372-12,12-12s12,5.376,12,12v24
		C440,354.624,434.628,360,428,360z"/>
</g>
<path style="fill:#F2B800;" d="M256,0c-6.74,0-13.396,0.34-20,0.852C368.032,11.068,472,121.348,472,256
	c0,134.656-103.968,244.936-236,255.148c6.604,0.508,13.26,0.852,20,0.852c141.392,0,256-114.608,256-256S397.392,0,256,0z"/>
<g>
	<path style="fill:#263740;" d="M204,168c-6.624,0-12-5.376-12-12c0-19.852-16.148-36-36-36s-36,16.148-36,36
		c0,6.624-5.376,12-12,12s-12-5.376-12-12c0-33.084,26.916-60,60-60s60,26.916,60,60C216,162.624,210.624,168,204,168z"/>
	<path style="fill:#263740;" d="M404,168c-6.624,0-12-5.376-12-12c0-19.852-16.148-36-36-36s-36,16.148-36,36
		c0,6.624-5.376,12-12,12s-12-5.376-12-12c0-33.084,26.916-60,60-60s60,26.916,60,60C416,162.624,410.624,168,404,168z"/>
</g>
<path style="fill:#E6E6E6;" d="M372,372v-44c0-24.252,19.752-44,44-44c24.252,0,44,19.752,44,44v44h16v-44c0-33.344-26.656-60-60-60
	s-60,26.656-60,60v44H372z"/>
<path style="fill:#CC584C;" d="M512,495.508c0,9.108-7.384,16.492-16.492,16.492H340c-9.108,0-20-7.384-20-16.492V388.492
	c0-9.108,7.384-16.492,16.492-16.492h159.016c9.108,0,16.492,7.384,16.492,16.492V495.508z"/>
<g>
	<rect x="320" y="392" style="fill:#F5F5F5;" width="192" height="8"/>
	<rect x="320" y="484" style="fill:#F5F5F5;" width="192" height="8"/>
</g>
<g>
	<rect x="356" y="368" style="fill:#CCCCCC;" width="16" height="4"/>
	<rect x="460" y="368" style="fill:#CCCCCC;" width="16" height="4"/>
</g>
<path style="fill:#F5F5F5;" d="M416,268c-33.344,0-60,26.656-60,60v8c4.416,0,8-3.584,8-8c0-29.156,22.84-52,52-52s52,22.844,52,52
	c0,4.416,3.584,8,8,8v-8C476,294.656,449.344,268,416,268z"/>
<path style="fill:#994239;" d="M436,428c0-11.048-8.952-20-20-20s-20,8.952-20,20c0,6.524,3.168,12.256,8,15.912V464
	c0,6.624,5.372,12,12,12s12-5.376,12-12v-20.088C432.832,440.256,436,434.524,436,428z"/>
<circle style="fill:#CC584C;" cx="416" cy="428" r="8"/>
</svg>