<?xml version="1.0" encoding="utf-8"?>
<!-- Uploaded to: SVG Repo, www.svgrepo.com, Generator: SVG Repo Mixer Tools -->
<svg width="800px" height="800px" viewBox="0 0 1024 1024" class="icon"  version="1.1" xmlns="http://www.w3.org/2000/svg"><path d="M864 512a32 32 0 0 0-32 32v96a32 32 0 0 0 64 0v-96a32 32 0 0 0-32-32zM881.92 389.44a23.68 23.68 0 0 0-5.76-2.88 19.84 19.84 0 0 0-6.08-1.92 32 32 0 0 0-28.8 8.64A32 32 0 0 0 832 416a32 32 0 1 0 64 0 33.6 33.6 0 0 0-9.28-22.72z" fill="#231815" /><path d="M800 128h-32a96 96 0 0 0-96-96H352a96 96 0 0 0-96 96H224a96 96 0 0 0-96 93.44v677.12A96 96 0 0 0 224 992h576a96 96 0 0 0 96-93.44V736a32 32 0 0 0-64 0v162.56a32 32 0 0 1-32 29.44H224a32 32 0 0 1-32-29.44V221.44A32 32 0 0 1 224 192h32a96 96 0 0 0 96 96h320a96 96 0 0 0 96-96h32a32 32 0 0 1 32 29.44V288a32 32 0 0 0 64 0V221.44A96 96 0 0 0 800 128z m-96 64a32 32 0 0 1-32 32H352a32 32 0 0 1-32-32V128a32 32 0 0 1 32-32h320a32 32 0 0 1 32 32z" fill="#231815" /><path d="M712.32 426.56L448 721.6l-137.28-136.32A32 32 0 0 0 265.6 630.4l160 160a32 32 0 0 0 22.4 9.6 32 32 0 0 0 23.04-10.56l288-320a32 32 0 0 0-47.68-42.88z" fill="#231815" /></svg>